<svg width="56" height="55" viewBox="0 0 56 55" fill="none" xmlns="http://www.w3.org/2000/svg">
<path d="M55.5 27.2163C55.5 41.958 43.2013 53.9326 28 53.9326C12.7987 53.9326 0.5 41.958 0.5 27.2163C0.5 12.4746 12.7987 0.5 28 0.5C43.2013 0.5 55.5 12.4746 55.5 27.2163Z" stroke="#308967"/>
<path d="M13.4746 27.0683C12.9865 27.5564 12.9865 28.3479 13.4746 28.836L21.4296 36.791C21.9177 37.2791 22.7092 37.2791 23.1973 36.791C23.6855 36.3028 23.6855 35.5114 23.1973 35.0232L16.1263 27.9521L23.1973 20.8811C23.6855 20.3929 23.6855 19.6015 23.1973 19.1133C22.7092 18.6252 21.9177 18.6252 21.4296 19.1133L13.4746 27.0683ZM45.9482 26.7021L14.3585 26.7021L14.3585 29.2021L45.9482 29.2021L45.9482 26.7021Z" fill="#308967"/>
</svg>
