<svg width="47" height="47" viewBox="0 0 47 47" fill="none" xmlns="http://www.w3.org/2000/svg">
<path d="M7.83325 7.8335H12.1467C12.8967 7.8335 13.2716 7.8335 13.5429 8.04529C13.8141 8.25709 13.9051 8.62087 14.087 9.34842L14.9091 12.637C15.2729 14.0921 15.4548 14.8197 15.9973 15.2432C16.5398 15.6668 17.2898 15.6668 18.7897 15.6668H19.5833" stroke="white" stroke-width="2" stroke-linecap="round"/>
<path d="M35.25 33.2915H14.5249C13.2586 33.2915 12.6255 33.2915 12.3262 32.8762C12.0269 32.4609 12.2271 31.8603 12.6275 30.659L12.7966 30.1516C13.2366 28.8316 13.4567 28.1715 13.9804 27.794C14.5042 27.4165 15.1999 27.4165 16.5914 27.4165H27.4167" stroke="white" stroke-width="2" stroke-linecap="round" stroke-linejoin="round"/>
<path d="M32.0555 27.4165H17.3608C16.3832 27.4165 15.5488 26.7097 15.3881 25.7453L13.9994 17.4131C13.847 16.4988 14.552 15.6665 15.4789 15.6665H37.5485C38.2919 15.6665 38.7754 16.4488 38.443 17.1137L33.8444 26.3109C33.5056 26.9885 32.8131 27.4165 32.0555 27.4165Z" stroke="white" stroke-width="2" stroke-linecap="round"/>
<circle cx="33.2916" cy="39.1668" r="1.95833" fill="white"/>
<circle cx="17.6251" cy="39.1668" r="1.95833" fill="white"/>
</svg>
