<svg width="20" height="20" viewBox="0 0 20 20" fill="none" xmlns="http://www.w3.org/2000/svg">
<path d="M16.1049 4.786C16.6667 5.62168 16.6667 6.78503 16.6667 9.11172C16.6667 11.4384 16.6667 12.6017 16.1049 13.4374C15.8617 13.7992 15.5492 14.1098 15.1853 14.3516C14.4508 14.8394 13.4648 14.901 11.6667 14.9088V14.91L10.7454 16.7415C10.4383 17.352 9.56179 17.352 9.25468 16.7415L8.33337 14.91V14.9088C6.53529 14.901 5.54927 14.8394 4.81481 14.3516C4.45084 14.1098 4.13834 13.7992 3.89514 13.4374C3.33337 12.6017 3.33337 11.4384 3.33337 9.11172C3.33337 6.78503 3.33337 5.62168 3.89514 4.786C4.13834 4.42422 4.45084 4.1136 4.81481 3.87186C5.65555 3.31348 6.82594 3.31348 9.16671 3.31348H10.8334C13.1741 3.31348 14.3445 3.31348 15.1853 3.87186C15.5492 4.1136 15.8617 4.42422 16.1049 4.786Z" stroke="#3F9272" stroke-width="2" stroke-linecap="round" stroke-linejoin="round"/>
<path d="M7.5 7.45508L12.5 7.45508" stroke="#3F9272" stroke-width="2" stroke-linecap="round" stroke-linejoin="round"/>
<path d="M7.5 10.7681H10" stroke="#3F9272" stroke-width="2" stroke-linecap="round" stroke-linejoin="round"/>
</svg>
