<svg width="46" height="46" viewBox="0 0 46 46" fill="none" xmlns="http://www.w3.org/2000/svg">
<path fill-rule="evenodd" clip-rule="evenodd" d="M39.3746 12.8491C40.25 14.9625 40.25 17.6417 40.25 23C40.25 28.3583 40.25 31.0375 39.3746 33.1509C38.2074 35.9687 35.9687 38.2074 33.1509 39.3746C31.0375 40.25 28.3583 40.25 23 40.25H17.25C11.8288 40.25 9.11827 40.25 7.43414 38.5659C5.75 36.8817 5.75 34.1712 5.75 28.75V23C5.75 17.6417 5.75 14.9625 6.62539 12.8491C7.79257 10.0313 10.0313 7.79257 12.8491 6.62539C14.9625 5.75 17.6417 5.75 23 5.75C28.3583 5.75 31.0375 5.75 33.1509 6.62539C35.9687 7.79257 38.2074 10.0313 39.3746 12.8491ZM16.25 19.166C16.25 18.6137 16.6977 18.166 17.25 18.166H28.75C29.3023 18.166 29.75 18.6137 29.75 19.166C29.75 19.7183 29.3023 20.166 28.75 20.166H17.25C16.6977 20.166 16.25 19.7183 16.25 19.166ZM16.25 26.8327C16.25 26.2804 16.6977 25.8327 17.25 25.8327H23C23.5523 25.8327 24 26.2804 24 26.8327C24 27.385 23.5523 27.8327 23 27.8327H17.25C16.6977 27.8327 16.25 27.385 16.25 26.8327Z" fill="white"/>
</svg>
