<svg width="30" height="20" viewBox="0 0 30 20" fill="none" xmlns="http://www.w3.org/2000/svg">
<g clip-path="url(#clip0_621_1175)">
<path d="M12.1776 12.3879V6.9678C12.1776 5.5668 13.2627 4.4307 14.6013 4.4307H19.9038V3.1386C19.9038 1.4055 18.5604 0 16.905 0H2.9988C1.3431 0 0 1.4055 0 3.1389V9.8451C0 11.5782 1.3431 12.984 2.9988 12.984H5.2935V16.6896C5.2935 16.8942 5.5743 17.0382 5.7201 16.8666C6.8136 15.5724 7.9062 14.2785 9 12.9843H12.2475C12.2031 12.7923 12.1776 12.5937 12.1776 12.3879Z" fill="#198C6F"/>
<path d="M13.5532 7.86145V13.9119C13.5532 15.1752 14.5321 16.2 15.7399 16.2H21.5029C22.3003 17.1435 23.0968 18.0867 23.8939 19.0302C24.0001 19.1562 24.2047 19.0506 24.2047 18.9018V16.2H27.8134C29.0209 16.2 29.9998 15.1752 29.9998 13.9119V7.86145C29.9998 6.59785 29.0209 5.57275 27.8134 5.57275H15.7399C14.5321 5.57275 13.5532 6.59755 13.5532 7.86145Z" fill="#198C6F"/>
</g>
<defs>
<clipPath id="clip0_621_1175">
<rect width="30" height="19.086" fill="white"/>
</clipPath>
</defs>
</svg>
