<svg width="20" height="20" viewBox="0 0 20 20" fill="none" xmlns="http://www.w3.org/2000/svg">
<path d="M16.1048 4.786C16.6666 5.62168 16.6666 6.78503 16.6666 9.11172C16.6666 11.4384 16.6666 12.6017 16.1048 13.4374C15.8616 13.7992 15.5491 14.1098 15.1852 14.3516C14.4507 14.8394 13.4647 14.901 11.6666 14.9088V14.91L10.7453 16.7415C10.4382 17.352 9.56167 17.352 9.25456 16.7415L8.33325 14.91V14.9088C6.53517 14.901 5.54914 14.8394 4.81468 14.3516C4.45072 14.1098 4.13821 13.7992 3.89502 13.4374C3.33325 12.6017 3.33325 11.4384 3.33325 9.11172C3.33325 6.78503 3.33325 5.62168 3.89502 4.786C4.13821 4.42422 4.45072 4.1136 4.81468 3.87186C5.65543 3.31348 6.82581 3.31348 9.16659 3.31348H10.8333C13.174 3.31348 14.3444 3.31348 15.1852 3.87186C15.5491 4.1136 15.8616 4.42422 16.1048 4.786Z" stroke="#3F9272" stroke-width="2" stroke-linecap="round" stroke-linejoin="round"/>
<path d="M7.5 7.45508L12.5 7.45508" stroke="#3F9272" stroke-width="2" stroke-linecap="round" stroke-linejoin="round"/>
<path d="M7.5 10.7681H10" stroke="#3F9272" stroke-width="2" stroke-linecap="round" stroke-linejoin="round"/>
</svg>
