<svg width="17" height="15" viewBox="0 0 17 15" fill="none" xmlns="http://www.w3.org/2000/svg">
<rect width="17" height="15" rx="5" fill="#3F9272"/>
<path fill-rule="evenodd" clip-rule="evenodd" d="M6.125 1.875C3.91586 1.875 2.125 3.66586 2.125 5.875L2.125 9.125C2.125 11.3341 3.91586 13.125 6.125 13.125L10.875 13.125C13.0841 13.125 14.875 11.3341 14.875 9.125L14.875 5.875C14.875 3.66586 13.0841 1.875 10.875 1.875L6.125 1.875ZM8 4.375L8 7L4.95833 7L4.95833 8L8 8L8 10.625L9 10.625L9 8L12.0417 8L12.0417 7L9 7L9 4.375L8 4.375Z" fill="white"/>
</svg>
