<svg width="100" height="100" viewBox="0 0 100 100" fill="none" xmlns="http://www.w3.org/2000/svg">
<circle cx="50" cy="50" r="50" fill="white"/>
<path d="M52.712 59.288C51.296 59.288 49.916 59.024 48.572 58.496C47.228 57.968 46.184 57.332 45.44 56.588L48.14 52.412C48.572 52.94 49.184 53.384 49.976 53.744C50.792 54.08 51.572 54.248 52.316 54.248C52.868 54.248 53.384 54.128 53.864 53.888C54.344 53.648 54.728 53.288 55.016 52.808C55.304 52.328 55.448 51.74 55.448 51.044C55.448 50.276 55.292 49.604 54.98 49.028C54.692 48.452 54.26 48.008 53.684 47.696C53.132 47.36 52.472 47.192 51.704 47.192C50.96 47.192 50.252 47.3 49.58 47.516C48.908 47.708 48.116 48.044 47.204 48.524H47.168V35.132H59.084V40.172H51.668V44.024L51.056 42.944C51.392 42.896 51.716 42.86 52.028 42.836C52.34 42.812 52.652 42.8 52.964 42.8C54.644 42.8 56.06 43.172 57.212 43.916C58.388 44.66 59.288 45.644 59.912 46.868C60.536 48.092 60.848 49.424 60.848 50.864C60.848 52.448 60.488 53.876 59.768 55.148C59.048 56.42 58.064 57.428 56.816 58.172C55.592 58.916 54.224 59.288 52.712 59.288Z" fill="#3F9272"/>
</svg>
