<svg width="100" height="100" viewBox="0 0 100 100" fill="none" xmlns="http://www.w3.org/2000/svg">
<circle cx="50" cy="50" r="50" fill="white"/>
<path d="M45.944 59C47.432 57.488 48.86 56.036 50.228 54.644C51.596 53.228 52.82 51.872 53.9 50.576C55.004 49.256 55.868 47.984 56.492 46.76C57.14 45.536 57.464 44.348 57.464 43.196C57.464 42.692 57.368 42.236 57.176 41.828C57.008 41.42 56.756 41.072 56.42 40.784C56.108 40.496 55.724 40.28 55.268 40.136C54.836 39.968 54.344 39.884 53.792 39.884C53.24 39.884 52.748 39.968 52.316 40.136C51.884 40.28 51.524 40.484 51.236 40.748C50.948 41.012 50.72 41.3 50.552 41.612C50.408 41.924 50.336 42.248 50.336 42.584C50.336 43.352 50.456 44.036 50.696 44.636C50.96 45.212 51.308 45.728 51.74 46.184L48.536 49.1C47.84 48.764 47.24 48.2 46.736 47.408C46.256 46.616 45.884 45.788 45.62 44.924C45.38 44.036 45.26 43.304 45.26 42.728C45.26 41.408 45.62 40.148 46.34 38.948C47.084 37.748 48.152 36.764 49.544 35.996C50.96 35.228 52.676 34.844 54.692 34.844C56.348 34.844 57.788 35.216 59.012 35.96C60.236 36.704 61.184 37.688 61.856 38.912C62.552 40.112 62.9 41.396 62.9 42.764C62.9 43.844 62.732 44.888 62.396 45.896C62.06 46.904 61.592 47.9 60.992 48.884C60.416 49.844 59.756 50.804 59.012 51.764C58.268 52.7 57.5 53.66 56.708 54.644L54.332 53.96H63.188V59H45.944Z" fill="#3F9272"/>
</svg>
