<svg width="100" height="100" viewBox="0 0 100 100" fill="none" xmlns="http://www.w3.org/2000/svg">
<circle cx="50" cy="50" r="50" fill="white"/>
<path d="M60.416 35.132L55.016 45.5L52.172 43.952C52.412 43.856 52.664 43.784 52.928 43.736C53.216 43.688 53.48 43.664 53.72 43.664C54.56 43.64 55.4 43.736 56.24 43.952C57.08 44.168 57.836 44.552 58.508 45.104C59.204 45.656 59.756 46.412 60.164 47.372C60.596 48.332 60.812 49.556 60.812 51.044C60.812 52.772 60.404 54.26 59.588 55.508C58.796 56.732 57.752 57.668 56.456 58.316C55.16 58.964 53.756 59.288 52.244 59.288C51.068 59.288 49.832 59.048 48.536 58.568C47.24 58.064 46.208 57.404 45.44 56.588L48.104 52.268C48.464 52.724 49.016 53.168 49.76 53.6C50.504 54.032 51.284 54.248 52.1 54.248C52.628 54.248 53.144 54.116 53.648 53.852C54.152 53.588 54.572 53.192 54.908 52.664C55.244 52.136 55.412 51.488 55.412 50.72C55.412 49.664 55.112 48.824 54.512 48.2C53.936 47.576 53.12 47.264 52.064 47.264C51.344 47.264 50.792 47.3 50.408 47.372C50.048 47.42 49.688 47.492 49.328 47.588L49.22 47.444L53.432 39.56L54.944 40.172H47.42V35.132H60.416Z" fill="#3F9272"/>
</svg>
