<svg width="20" height="20" viewBox="0 0 20 20" fill="none" xmlns="http://www.w3.org/2000/svg">
<circle cx="9" cy="10.9216" r="9" fill="#51CB9F"/>
<path fill-rule="evenodd" clip-rule="evenodd" d="M18.0866 4.83501L19.25 3.67157L19.2501 3.67154C19.3297 3.59191 19.3695 3.55209 19.4015 3.51683C20.0949 2.75401 20.0949 1.58913 19.4015 0.826315C19.3695 0.79106 19.3297 0.751242 19.2501 0.671617L19.25 0.671573C19.1704 0.591919 19.1305 0.552092 19.0953 0.52004C18.3325 -0.173347 17.1676 -0.173347 16.4048 0.52004C16.3695 0.552092 16.3297 0.591919 16.25 0.671573L15.069 1.85259C15.7823 3.09774 16.8243 4.13168 18.0866 4.83501ZM13.6143 3.30729L8.8564 8.06519C8.43134 8.49025 8.21881 8.70278 8.07907 8.96388C7.93934 9.22498 7.88039 9.5197 7.7625 10.1092L7.3971 11.9361C7.33058 12.2687 7.29732 12.4351 7.39193 12.5297C7.48654 12.6243 7.65284 12.591 7.98545 12.5245L9.81243 12.1591L9.81244 12.1591C10.4019 12.0412 10.6966 11.9823 10.9577 11.8425C11.2188 11.7028 11.4313 11.4903 11.8564 11.0652L11.8564 11.0652L11.8564 11.0652L16.6281 6.2935C15.4171 5.52526 14.3897 4.50475 13.6143 3.30729Z" fill="#06612B"/>
</svg>
