<svg width="40" height="39" viewBox="0 0 40 39" fill="none" xmlns="http://www.w3.org/2000/svg">
<path d="M7.18555 6.5H10.499C11.2489 6.5 11.6239 6.5 11.8952 6.71179C12.1664 6.92359 12.2574 7.28737 12.4393 8.01493L12.9281 9.97014C13.2919 11.4253 13.4738 12.1528 14.0163 12.5764C14.5588 13 15.3087 13 16.8087 13H16.9355" stroke="#308967" stroke-width="2" stroke-linecap="round"/>
<path d="M29.9355 27.625H12.9558C11.9294 27.625 11.4162 27.625 11.125 27.3411C11.0419 27.2601 10.9735 27.1652 10.9229 27.0607C10.7457 26.6946 10.9079 26.2078 11.2325 25.2341V25.2341C11.5905 24.1601 11.7695 23.623 12.1548 23.2719C12.2678 23.1688 12.3923 23.0791 12.5259 23.0044C12.9808 22.75 13.5469 22.75 14.679 22.75H23.4355" stroke="#308967" stroke-width="2" stroke-linecap="round" stroke-linejoin="round"/>
<path d="M27.0745 22.75H15.3798C14.4021 22.75 13.5677 22.0432 13.407 21.0788L12.3516 14.7466C12.1993 13.8323 12.9043 13 13.8312 13H31.5675C32.3109 13 32.7944 13.7823 32.4619 14.4472L28.8633 21.6444C28.5245 22.322 27.832 22.75 27.0745 22.75Z" stroke="#308967" stroke-width="2" stroke-linecap="round"/>
<ellipse cx="28.3105" cy="32.5" rx="1.625" ry="1.625" fill="#308967"/>
<ellipse cx="15.3105" cy="32.5" rx="1.625" ry="1.625" fill="#308967"/>
</svg>
