<svg width="11" height="12" viewBox="0 0 11 12" fill="none" xmlns="http://www.w3.org/2000/svg">
<path d="M10.0329 2.06044C10.4121 2.66227 10.4121 3.50005 10.4121 5.17563C10.4121 6.85121 10.4121 7.68899 10.0329 8.29082C9.86876 8.55135 9.65782 8.77505 9.41214 8.94914C8.91638 9.30043 8.25082 9.34484 7.03711 9.35045V9.35126L6.41522 10.6703C6.20793 11.1099 5.61629 11.1099 5.40899 10.6703L4.78711 9.35126V9.35045C3.5734 9.34484 2.90784 9.30043 2.41208 8.94914C2.1664 8.77505 1.95546 8.55135 1.7913 8.29082C1.41211 7.68899 1.41211 6.85121 1.41211 5.17563C1.41211 3.50005 1.41211 2.66227 1.7913 2.06044C1.95546 1.79991 2.1664 1.57621 2.41208 1.40213C2.97958 1 3.76959 1 5.34961 1H6.47461C8.05463 1 8.84464 1 9.41214 1.40213C9.65782 1.57621 9.86876 1.79991 10.0329 2.06044Z" stroke="#3F9272" stroke-linecap="round" stroke-linejoin="round"/>
</svg>
