<svg width="30" height="30" viewBox="0 0 30 30" fill="none" xmlns="http://www.w3.org/2000/svg">
<path d="M20 10V8.75C20 5.98858 17.7614 3.75 15 3.75V3.75C12.2386 3.75 10 5.98858 10 8.75V10" stroke="#3F9272" stroke-width="2" stroke-linecap="round"/>
<path d="M3.75 14.75C3.75 11.9216 3.75 10.5074 4.62868 9.62868C5.50736 8.75 6.92157 8.75 9.75 8.75H20.25C23.0784 8.75 24.4926 8.75 25.3713 9.62868C26.25 10.5074 26.25 11.9216 26.25 14.75V19.5C26.25 23.2712 26.25 25.1569 25.0784 26.3284C23.9069 27.5 22.0212 27.5 18.25 27.5H11.75C7.97876 27.5 6.09315 27.5 4.92157 26.3284C3.75 25.1569 3.75 23.2712 3.75 19.5V14.75Z" fill="#3F9272"/>
</svg>
