<svg width="1153" height="67" viewBox="0 0 1153 67" fill="none" xmlns="http://www.w3.org/2000/svg">
<g filter="url(#filter0_d_131_2558)">
<path fill-rule="evenodd" clip-rule="evenodd" d="M36.1037 6.40357C34.5382 6.5785 32.8811 6.37892 31.2422 5.74992C29.2454 4.98358 27.5432 3.68243 26.2468 2.06482C23.8565 5.63779 19.5455 7.28167 15.2846 5.95989C15.2657 6.02477 15.2472 6.08998 15.2293 6.1555C13.4762 12.5469 16.7816 19.5423 22.6122 21.7801C28.4427 24.018 34.5904 20.6508 36.3435 14.2594C37.0681 11.6178 36.9285 8.873 36.1037 6.40357Z" fill="#3F9272"/>
<path fill-rule="evenodd" clip-rule="evenodd" d="M25.6871 26.8641C34.8128 26.8641 42.2106 19.9669 42.2106 11.4587C42.2106 8.24425 44.7692 5.25965 46.4047 8.02693C47.0207 9.06919 47.3742 10.285 47.3742 11.5834V19.1776C47.3742 23.409 43.8488 26.7549 40.315 29.0823C37.7225 30.7899 35.6325 33.3105 34.3435 36.3194C32.7714 39.9893 29.6796 43.3565 25.6871 43.3565C21.6946 43.3565 18.6028 39.9893 17.0307 36.3194C15.7417 33.3105 13.6518 30.7899 11.0592 29.0823C7.52547 26.7549 4 23.409 4 19.1776V11.5834C4 10.285 4.35349 9.0692 4.96948 8.02694C6.60499 5.25966 9.1636 8.24425 9.1636 11.4587C9.1636 19.9669 16.5614 26.8641 25.6871 26.8641Z" fill="url(#paint0_linear_131_2558)"/>
<path d="M68.2031 20.8267C68.2031 19.8134 68.3965 18.8534 68.7831 17.9467C69.1698 17.04 69.7031 16.24 70.3831 15.5467C71.0765 14.84 71.8765 14.2867 72.7831 13.8867C73.6898 13.4867 74.6631 13.2867 75.7031 13.2867C76.7298 13.2867 77.6965 13.4867 78.6031 13.8867C79.5098 14.2867 80.3098 14.84 81.0031 15.5467C81.7098 16.24 82.2565 17.04 82.6431 17.9467C83.0431 18.8534 83.2431 19.8134 83.2431 20.8267C83.2431 21.8667 83.0431 22.84 82.6431 23.7467C82.2565 24.6534 81.7098 25.4534 81.0031 26.1467C80.3098 26.8267 79.5098 27.36 78.6031 27.7467C77.6965 28.1334 76.7298 28.3267 75.7031 28.3267C74.6631 28.3267 73.6898 28.1334 72.7831 27.7467C71.8765 27.36 71.0765 26.8267 70.3831 26.1467C69.7031 25.4534 69.1698 24.6534 68.7831 23.7467C68.3965 22.84 68.2031 21.8667 68.2031 20.8267ZM71.2031 20.8267C71.2031 21.48 71.3165 22.0934 71.5431 22.6667C71.7831 23.2267 72.1098 23.7267 72.5231 24.1667C72.9498 24.5934 73.4365 24.9267 73.9831 25.1667C74.5431 25.4067 75.1498 25.5267 75.8031 25.5267C76.4298 25.5267 77.0098 25.4067 77.5431 25.1667C78.0898 24.9267 78.5631 24.5934 78.9631 24.1667C79.3631 23.7267 79.6765 23.2267 79.9031 22.6667C80.1298 22.0934 80.2431 21.48 80.2431 20.8267C80.2431 20.16 80.1231 19.54 79.8831 18.9667C79.6565 18.3934 79.3365 17.8934 78.9231 17.4667C78.5231 17.0267 78.0498 16.6867 77.5031 16.4467C76.9565 16.2067 76.3631 16.0867 75.7231 16.0867C75.0831 16.0867 74.4898 16.2067 73.9431 16.4467C73.3965 16.6867 72.9165 17.0267 72.5031 17.4667C72.0898 17.8934 71.7698 18.3934 71.5431 18.9667C71.3165 19.54 71.2031 20.16 71.2031 20.8267ZM88.1944 19.4267L88.4544 21.8267L88.3944 21.4667C88.6477 20.9467 88.9944 20.5067 89.4344 20.1467C89.8744 19.7734 90.3077 19.4867 90.7344 19.2867C91.1744 19.0867 91.5077 18.9867 91.7344 18.9867L91.5944 21.7867C90.941 21.7067 90.381 21.8134 89.9144 22.1067C89.4477 22.4 89.0877 22.7867 88.8344 23.2667C88.581 23.7467 88.4544 24.24 88.4544 24.7467V28.1667H85.6744V19.4267H88.1944ZM96.4175 19.4267L96.6375 20.9867L96.5975 20.8467C96.9042 20.3 97.3375 19.86 97.8975 19.5267C98.4575 19.18 99.1442 19.0067 99.9575 19.0067C100.784 19.0067 101.471 19.2534 102.018 19.7467C102.578 20.2267 102.864 20.8534 102.878 21.6267V28.1667H100.078V22.6667C100.064 22.28 99.9575 21.9734 99.7575 21.7467C99.5708 21.5067 99.2508 21.3867 98.7975 21.3867C98.3708 21.3867 97.9975 21.5267 97.6775 21.8067C97.3575 22.0867 97.1108 22.4667 96.9375 22.9467C96.7642 23.4267 96.6775 23.98 96.6775 24.6067V28.1667H93.8775V19.4267H96.4175ZM109.433 28.4067C108.619 28.4067 107.879 28.2467 107.213 27.9267C106.559 27.5934 106.039 27.0867 105.653 26.4067C105.266 25.7267 105.073 24.86 105.073 23.8067C105.073 22.82 105.273 21.9667 105.673 21.2467C106.073 20.5267 106.599 19.9734 107.252 19.5867C107.906 19.1867 108.599 18.9867 109.333 18.9867C110.199 18.9867 110.853 19.1334 111.293 19.4267C111.746 19.7067 112.119 20.02 112.413 20.3667L112.293 20.7067L112.553 19.4267H115.153V28.1667H112.353V26.2667L112.573 26.8667C112.546 26.8667 112.466 26.9467 112.333 27.1067C112.199 27.2534 111.999 27.4334 111.733 27.6467C111.479 27.8467 111.159 28.02 110.773 28.1667C110.399 28.3267 109.953 28.4067 109.433 28.4067ZM110.233 26.1267C110.566 26.1267 110.866 26.08 111.133 25.9867C111.399 25.88 111.633 25.7334 111.833 25.5467C112.033 25.3467 112.206 25.1 112.353 24.8067V22.6667C112.246 22.3734 112.086 22.1267 111.873 21.9267C111.659 21.7134 111.406 21.5534 111.113 21.4467C110.819 21.3267 110.493 21.2667 110.133 21.2667C109.733 21.2667 109.359 21.3734 109.013 21.5867C108.679 21.7867 108.413 22.0667 108.213 22.4267C108.013 22.7867 107.913 23.2 107.913 23.6667C107.913 24.1334 108.019 24.5534 108.233 24.9267C108.446 25.3 108.726 25.5934 109.073 25.8067C109.433 26.02 109.819 26.1267 110.233 26.1267Z" fill="black"/>
<path d="M117.498 13.4467H127.418V16.2467H123.838V28.1667H120.938V16.2467H117.498V13.4467ZM131.085 19.4267L131.345 21.8267L131.285 21.4667C131.538 20.9467 131.885 20.5067 132.325 20.1467C132.765 19.7734 133.198 19.4867 133.625 19.2867C134.065 19.0867 134.398 18.9867 134.625 18.9867L134.485 21.7867C133.832 21.7067 133.272 21.8134 132.805 22.1067C132.338 22.4 131.978 22.7867 131.725 23.2667C131.472 23.7467 131.345 24.24 131.345 24.7467V28.1667H128.565V19.4267H131.085ZM140.678 28.4067C139.611 28.4067 138.704 28.2067 137.958 27.8067C137.224 27.4067 136.664 26.8534 136.278 26.1467C135.891 25.44 135.698 24.6267 135.698 23.7067C135.698 22.8267 135.924 22.0334 136.378 21.3267C136.831 20.62 137.438 20.06 138.198 19.6467C138.958 19.22 139.804 19.0067 140.738 19.0067C141.991 19.0067 143.018 19.3734 143.818 20.1067C144.631 20.8267 145.157 21.8734 145.398 23.2467L138.598 25.4067L137.978 23.8867L142.898 22.2267L142.318 22.4867C142.211 22.14 142.018 21.84 141.738 21.5867C141.471 21.32 141.064 21.1867 140.518 21.1867C140.104 21.1867 139.738 21.2867 139.418 21.4867C139.111 21.6734 138.871 21.9467 138.698 22.3067C138.538 22.6534 138.458 23.0667 138.458 23.5467C138.458 24.0934 138.558 24.5534 138.758 24.9267C138.958 25.2867 139.231 25.56 139.578 25.7467C139.924 25.9334 140.311 26.0267 140.738 26.0267C141.044 26.0267 141.338 25.9734 141.618 25.8667C141.911 25.76 142.198 25.62 142.478 25.4467L143.718 27.5267C143.251 27.7934 142.744 28.0067 142.198 28.1667C141.664 28.3267 141.158 28.4067 140.678 28.4067ZM150.992 28.4067C150.179 28.4067 149.452 28.22 148.812 27.8467C148.172 27.46 147.666 26.9067 147.292 26.1867C146.932 25.4667 146.752 24.6134 146.752 23.6267C146.752 22.64 146.952 21.8 147.352 21.1067C147.752 20.4134 148.299 19.8867 148.992 19.5267C149.686 19.1667 150.472 18.9867 151.352 18.9867C151.912 18.9867 152.446 19.0734 152.952 19.2467C153.472 19.42 153.906 19.6867 154.252 20.0467V20.9267V12.3867H157.032V28.1667H154.232V26.4667L154.452 27.0667C153.999 27.44 153.492 27.76 152.932 28.0267C152.372 28.28 151.726 28.4067 150.992 28.4067ZM151.912 26.0467C152.286 26.0467 152.612 26 152.892 25.9067C153.186 25.8 153.439 25.6534 153.652 25.4667C153.879 25.2667 154.072 25.02 154.232 24.7267V22.5867C154.126 22.2934 153.959 22.0467 153.732 21.8467C153.519 21.6334 153.252 21.4734 152.932 21.3667C152.626 21.2467 152.286 21.1867 151.912 21.1867C151.499 21.1867 151.112 21.2934 150.752 21.5067C150.406 21.7067 150.126 21.9867 149.912 22.3467C149.699 22.7067 149.592 23.12 149.592 23.5867C149.592 24.0534 149.699 24.4734 149.912 24.8467C150.126 25.22 150.406 25.5134 150.752 25.7267C151.112 25.94 151.499 26.0467 151.912 26.0467ZM164.213 28.4067C163.146 28.4067 162.239 28.2067 161.493 27.8067C160.759 27.4067 160.199 26.8534 159.813 26.1467C159.426 25.44 159.233 24.6267 159.233 23.7067C159.233 22.8267 159.459 22.0334 159.913 21.3267C160.366 20.62 160.973 20.06 161.733 19.6467C162.493 19.22 163.339 19.0067 164.273 19.0067C165.526 19.0067 166.553 19.3734 167.353 20.1067C168.166 20.8267 168.693 21.8734 168.933 23.2467L162.133 25.4067L161.513 23.8867L166.433 22.2267L165.853 22.4867C165.746 22.14 165.553 21.84 165.273 21.5867C165.006 21.32 164.599 21.1867 164.053 21.1867C163.639 21.1867 163.273 21.2867 162.953 21.4867C162.646 21.6734 162.406 21.9467 162.233 22.3067C162.073 22.6534 161.993 23.0667 161.993 23.5467C161.993 24.0934 162.093 24.5534 162.293 24.9267C162.493 25.2867 162.766 25.56 163.113 25.7467C163.459 25.9334 163.846 26.0267 164.273 26.0267C164.579 26.0267 164.873 25.9734 165.153 25.8667C165.446 25.76 165.733 25.62 166.013 25.4467L167.253 27.5267C166.786 27.7934 166.279 28.0067 165.733 28.1667C165.199 28.3267 164.693 28.4067 164.213 28.4067ZM178.387 27.3867C178.001 27.6934 177.514 27.94 176.927 28.1267C176.354 28.3134 175.787 28.4067 175.227 28.4067C174.227 28.4067 173.354 28.2267 172.607 27.8667C171.874 27.4934 171.301 26.9667 170.887 26.2867C170.487 25.5934 170.287 24.76 170.287 23.7867C170.287 22.8134 170.507 21.9867 170.947 21.3067C171.387 20.6134 171.961 20.0867 172.667 19.7267C173.387 19.3667 174.141 19.1867 174.927 19.1867C175.714 19.1867 176.394 19.2934 176.967 19.5067C177.554 19.72 178.054 20 178.467 20.3467L177.107 22.1467C176.921 22 176.661 21.8534 176.327 21.7067C176.007 21.5467 175.627 21.4667 175.187 21.4667C174.801 21.4667 174.447 21.5667 174.127 21.7667C173.807 21.9667 173.554 22.24 173.367 22.5867C173.181 22.9334 173.087 23.3334 173.087 23.7867C173.087 24.2134 173.187 24.6067 173.387 24.9667C173.587 25.3267 173.861 25.6134 174.207 25.8267C174.567 26.0267 174.987 26.1267 175.467 26.1267C175.774 26.1267 176.054 26.0867 176.307 26.0067C176.574 25.9134 176.801 25.7867 176.987 25.6267L178.387 27.3867Z" fill="#3F9272"/>
</g>
<defs>
<filter id="filter0_d_131_2558" x="0" y="0" width="1574.47" height="75" filterUnits="userSpaceOnUse" color-interpolation-filters="sRGB">
<feFlood flood-opacity="0" result="BackgroundImageFix"/>
<feColorMatrix in="SourceAlpha" type="matrix" values="0 0 0 0 0 0 0 0 0 0 0 0 0 0 0 0 0 0 127 0" result="hardAlpha"/>
<feOffset dy="4"/>
<feGaussianBlur stdDeviation="2"/>
<feComposite in2="hardAlpha" operator="out"/>
<feColorMatrix type="matrix" values="0 0 0 0 0 0 0 0 0 0 0 0 0 0 0 0 0 0 0.25 0"/>
<feBlend mode="normal" in2="BackgroundImageFix" result="effect1_dropShadow_131_2558"/>
<feBlend mode="normal" in="SourceGraphic" in2="effect1_dropShadow_131_2558" result="shape"/>
</filter>
<linearGradient id="paint0_linear_131_2558" x1="11.0569" y1="9.48354" x2="35.4278" y2="39.846" gradientUnits="userSpaceOnUse">
<stop stop-color="#6BF8C2"/>
<stop offset="0.345" stop-color="#5CD5A6"/>
<stop offset="1" stop-color="#3F9272"/>
</linearGradient>
</defs>
</svg>
