<svg width="25" height="31" viewBox="0 0 25 31" fill="none" xmlns="http://www.w3.org/2000/svg">
<path d="M25 7.75891V27.553C25 29.1698 23.6844 30.4854 22.0675 30.4854H8.68822C7.07129 30.4854 5.75577 29.1698 5.75577 27.553V14.6825C6.17407 14.7521 6.60079 14.7972 7.03871 14.7972C7.34927 14.7972 7.65407 14.7741 7.95513 14.7385V27.553C7.95513 27.9571 8.28391 28.286 8.68822 28.286H22.0675C22.4717 28.286 22.8006 27.957 22.8006 27.553V7.75891C22.8006 7.3546 22.4716 7.02581 22.0675 7.02581H14.8102C14.8102 6.26122 14.6953 5.52431 14.4894 4.82652H22.0675C23.6844 4.82645 25 6.14197 25 7.75891ZM6.91625 13.8323C3.10251 13.8323 0 10.7298 0 6.91625C6.05616e-05 3.10251 3.10251 0 6.91625 0C10.7299 0 13.8325 3.10251 13.8325 6.91625C13.8325 10.7298 10.7299 13.8323 6.91625 13.8323ZM6.91625 12.3661C9.9212 12.3661 12.3661 9.92156 12.3661 6.91625C12.3661 3.91076 9.92156 1.46626 6.91625 1.46626C3.91083 1.46626 1.46626 3.91076 1.46626 6.91625C1.46626 9.92156 3.91119 12.3661 6.91625 12.3661ZM11.0642 7.64941C11.4688 7.64941 11.7973 7.32099 11.7973 6.91631C11.7973 6.51164 11.4688 6.18322 11.0642 6.18322H7.64935V3.30533C7.64935 2.90066 7.32093 2.57223 6.91625 2.57223C6.51158 2.57223 6.18316 2.90066 6.18316 3.30533V6.91631C6.18316 7.32099 6.51158 7.64941 6.91625 7.64941H11.0642ZM19.5256 13.5934H11.5836C11.1789 13.5934 10.8505 13.9218 10.8505 14.3265C10.8505 14.7312 11.1789 15.0596 11.5836 15.0596H19.5256C19.9305 15.0596 20.2587 14.7312 20.2587 14.3265C20.2588 13.9218 19.9305 13.5934 19.5256 13.5934ZM19.5385 18.0404H11.5965C11.1918 18.0404 10.8634 18.3686 10.8634 18.7735C10.8634 19.1783 11.1918 19.5066 11.5965 19.5066H19.5385C19.9434 19.5066 20.2715 19.1783 20.2715 18.7735C20.2715 18.3686 19.9437 18.0404 19.5385 18.0404ZM19.5385 22.6714H11.5965C11.1918 22.6714 10.8634 23 10.8634 23.4045C10.8634 23.8094 11.1918 24.1375 11.5965 24.1375H19.5385C19.9434 24.1375 20.2715 23.8093 20.2715 23.4045C20.2716 23 19.9437 22.6714 19.5385 22.6714Z" fill="#28DF99"/>
</svg>
