<svg width="98" height="89" viewBox="0 0 98 89" fill="none" xmlns="http://www.w3.org/2000/svg">
<path fill-rule="evenodd" clip-rule="evenodd" d="M20.1927 36.9679C23.4134 41.4009 21.9125 47.9819 16.8403 51.6671C15.6349 52.5429 14.3363 53.1763 13.0136 53.5735L22.5445 66.6916L38.5697 55.0486C36.6291 54.4918 34.9106 53.3628 33.6928 51.6866C30.472 47.2536 31.9729 40.6726 37.0451 36.9874C39.0194 35.553 41.2438 34.7688 43.4143 34.6073L35.8501 24.196L19.4699 36.0969C19.7267 36.3686 19.9682 36.6589 20.1927 36.9679Z" fill="#51CB9F"/>
<ellipse cx="43.3679" cy="44.8077" rx="6.0328" ry="5.46441" transform="rotate(-36 43.3679 44.8077)" fill="#51CB9F"/>
<ellipse cx="13.0515" cy="43.3631" rx="6.0328" ry="5.46441" transform="rotate(-36 13.0515 43.3631)" fill="#51CB9F"/>
<path fill-rule="evenodd" clip-rule="evenodd" d="M24.0392 33.2644C27.2355 33.0893 29.8722 31.3035 30.1458 28.9832C30.4194 26.6628 28.2366 24.6 25.1243 24.0624C26.6265 22.4287 28.7646 21.4485 31.019 21.5781C34.9405 21.8035 37.7285 25.3015 37.2463 29.3913C36.764 33.481 33.194 36.6137 29.2725 36.3883C27.0182 36.2588 25.1384 35.0477 24.0392 33.2644Z" fill="#51CB9F"/>
<path fill-rule="evenodd" clip-rule="evenodd" d="M31.7232 54.9262C28.6992 56.1115 26.7501 58.6103 27.2573 60.8483C27.7644 63.0862 30.5546 64.2992 33.7344 63.8014C32.8287 65.7962 31.0926 67.3889 28.8757 67.9904C25.0193 69.0367 21.1685 66.6872 20.2747 62.7427C19.3808 58.7982 21.7825 54.7524 25.6388 53.7061C27.8557 53.1047 30.0707 53.6254 31.7232 54.9262Z" fill="#51CB9F"/>
<path fill-rule="evenodd" clip-rule="evenodd" d="M65.9916 61.8498C69.7072 64.4516 70.5588 69.6464 67.8936 73.4527C67.2602 74.3572 66.4852 75.102 65.6218 75.6769L76.6172 83.376L85.0378 71.3501C83.4306 71.3491 81.8173 70.8769 80.4124 69.8932C76.6967 67.2914 75.8452 62.0967 78.5104 58.2903C79.5478 56.8088 80.9651 55.7559 82.5285 55.176L73.8018 49.0655L65.1947 61.3577C65.4665 61.5046 65.7326 61.6685 65.9916 61.8498Z" fill="#51CB9F"/>
<ellipse cx="85.5415" cy="62.744" rx="4.4712" ry="4.52354" transform="rotate(-55 85.5415 62.744)" fill="#51CB9F"/>
<ellipse cx="62.6001" cy="68.1029" rx="4.4712" ry="4.52354" transform="rotate(-55 62.6001 68.1029)" fill="#51CB9F"/>
<path fill-rule="evenodd" clip-rule="evenodd" d="M67.7401 58.2898C70.0611 57.4822 71.4853 55.5998 70.9953 53.8224C70.5053 52.045 68.2684 50.9794 65.7969 51.2411C66.4242 49.7119 67.719 48.5322 69.4315 48.1502C72.4106 47.4855 75.5257 49.4863 76.3893 52.619C77.253 55.7517 75.5381 58.8301 72.5591 59.4947C70.8465 59.8768 69.089 59.3781 67.7401 58.2898Z" fill="#51CB9F"/>
<path fill-rule="evenodd" clip-rule="evenodd" d="M79.9168 72.7115C78.0256 74.2311 77.3249 76.4961 78.3699 78.0468C79.415 79.5976 81.8491 79.9047 84.0614 78.8614C83.9848 80.5317 83.1715 82.08 81.7052 82.9958C79.1544 84.589 75.5933 83.6647 73.7513 80.9314C71.9093 78.1982 72.4838 74.6909 75.0346 73.0978C76.501 72.182 78.3012 72.0981 79.9168 72.7115Z" fill="#51CB9F"/>
<path fill-rule="evenodd" clip-rule="evenodd" d="M56.2615 16.3049C60.0279 17.037 62.4444 20.9056 61.6591 24.9457C61.4725 25.9058 61.1218 26.7892 60.6451 27.5683L71.7905 29.7348L74.2716 16.9704C73.0223 17.5586 71.6091 17.7699 70.185 17.493C66.4187 16.761 64.0021 12.8923 64.7874 8.85227C65.0931 7.27972 65.8388 5.91299 66.8578 4.87327L58.0122 3.15385L55.4761 16.2009C55.7369 16.2195 55.999 16.2539 56.2615 16.3049Z" fill="#51CB9F"/>
<ellipse cx="71.7558" cy="9.85992" rx="3.96027" ry="3.82628" transform="rotate(-79 71.7558 9.85992)" fill="#51CB9F"/>
<ellipse cx="55.7382" cy="22.5804" rx="3.96027" ry="3.82628" transform="rotate(-79 55.7382 22.5804)" fill="#51CB9F"/>
<path fill-rule="evenodd" clip-rule="evenodd" d="M56.4185 12.7989C57.9493 11.2984 58.4202 9.26145 57.439 8.0106C56.4578 6.75975 54.3595 6.72201 52.5273 7.83838C52.4982 6.37782 53.1059 4.95387 54.3076 4.01875C56.3981 2.39206 59.4947 2.86059 61.2241 5.06525C62.9535 7.2699 62.6608 10.3758 60.5703 12.0025C59.3686 12.9376 57.8344 13.1804 56.4185 12.7989Z" fill="#51CB9F"/>
<path fill-rule="evenodd" clip-rule="evenodd" d="M70.7526 19.9426C69.7963 21.8586 70.0169 23.9383 71.3529 24.8033C72.6889 25.6683 74.6842 25.0234 76.0509 23.373C76.5556 24.7452 76.4467 26.2894 75.6166 27.5639C74.1725 29.7808 71.093 30.3421 68.7383 28.8174C66.3835 27.2928 65.6452 24.2597 67.0893 22.0427C67.9194 20.7683 69.29 20.041 70.7526 19.9426Z" fill="#51CB9F"/>
</svg>
