<svg width="31" height="30" viewBox="0 0 31 30" fill="none" xmlns="http://www.w3.org/2000/svg">
<path d="M8.74535 9.96177C9.13828 6.4254 12.1274 3.75 15.6855 3.75V3.75C19.2437 3.75 22.2328 6.4254 22.6257 9.96177L22.9405 12.7945C22.9925 13.2623 23.0185 13.4962 23.0576 13.7258C23.1983 14.5511 23.4677 15.3493 23.856 16.0911C23.964 16.2975 24.0851 16.4992 24.3272 16.9028L25.1182 18.221C25.9239 19.5639 26.3268 20.2354 26.0396 20.7427C25.7523 21.25 24.9693 21.25 23.4032 21.25H7.96793C6.40182 21.25 5.61877 21.25 5.33154 20.7427C5.04431 20.2354 5.44719 19.5639 6.25294 18.221L7.04387 16.9028C7.286 16.4992 7.40707 16.2975 7.51509 16.0911C7.90336 15.3493 8.17277 14.5511 8.31349 13.7258C8.35264 13.4962 8.37862 13.2623 8.4306 12.7945L8.74535 9.96177Z" stroke="#308967" stroke-width="2"/>
<path d="M10.6855 21.25C10.6855 21.9066 10.8149 22.5568 11.0661 23.1634C11.3174 23.77 11.6857 24.3212 12.15 24.7855C12.6143 25.2498 13.1655 25.6181 13.7721 25.8694C14.3788 26.1207 15.0289 26.25 15.6855 26.25C16.3422 26.25 16.9923 26.1207 17.599 25.8694C18.2056 25.6181 18.7568 25.2498 19.2211 24.7855C19.6854 24.3212 20.0537 23.77 20.3049 23.1634C20.5562 22.5568 20.6855 21.9066 20.6855 21.25" stroke="#308967" stroke-width="2" stroke-linecap="round"/>
</svg>
