<svg width="30" height="30" viewBox="0 0 30 30" fill="none" xmlns="http://www.w3.org/2000/svg">
<path fill-rule="evenodd" clip-rule="evenodd" d="M6.83579 5.58579C6.25 6.17157 6.25 7.11438 6.25 9V22.25C6.25 24.1356 6.25 25.0784 6.83579 25.6642C7.42157 26.25 8.36438 26.25 10.25 26.25H19.75C21.6356 26.25 22.5784 26.25 23.1642 25.6642C23.75 25.0784 23.75 24.1356 23.75 22.25V9C23.75 7.11438 23.75 6.17157 23.1642 5.58579C22.5784 5 21.6356 5 19.75 5H10.25C8.36438 5 7.42157 5 6.83579 5.58579ZM11.25 10.25C10.6977 10.25 10.25 10.6977 10.25 11.25C10.25 11.8023 10.6977 12.25 11.25 12.25H18.75C19.3023 12.25 19.75 11.8023 19.75 11.25C19.75 10.6977 19.3023 10.25 18.75 10.25H11.25ZM11.25 15.25C10.6977 15.25 10.25 15.6977 10.25 16.25C10.25 16.8023 10.6977 17.25 11.25 17.25H18.75C19.3023 17.25 19.75 16.8023 19.75 16.25C19.75 15.6977 19.3023 15.25 18.75 15.25H11.25ZM11.25 20.25C10.6977 20.25 10.25 20.6977 10.25 21.25C10.25 21.8023 10.6977 22.25 11.25 22.25H16.25C16.8023 22.25 17.25 21.8023 17.25 21.25C17.25 20.6977 16.8023 20.25 16.25 20.25H11.25Z" fill="white"/>
</svg>
