<svg width="1184" height="89" viewBox="0 0 1184 89" fill="none" xmlns="http://www.w3.org/2000/svg">
<path fill-rule="evenodd" clip-rule="evenodd" d="M46.8156 8.56221C44.4257 8.9343 41.8865 8.74458 39.3911 7.89975C36.3552 6.87192 33.8161 5.02074 31.9596 2.69472C28.5037 7.35275 22.5548 9.65241 16.6745 8.29365C16.6575 8.34619 16.6407 8.39887 16.6242 8.4517C13.9176 17.0937 18.477 26.3861 26.808 29.2068C35.139 32.0275 44.0867 27.3083 46.7933 18.6663C47.8621 15.2535 47.7978 11.7392 46.8156 8.56221Z" fill="#3F9272"/>
<path fill-rule="evenodd" clip-rule="evenodd" d="M31.5644 35.6847C44.8463 35.6847 55.6135 26.5227 55.6135 15.2208C55.6135 12.9849 55.1921 10.8329 54.4132 8.81889C53.9284 7.56514 54.7846 6.08789 56.1288 6.08789C59.9948 6.08789 63.1288 9.2219 63.1288 13.0879V27.9079C63.1288 32.1554 59.7026 35.5231 55.7804 37.1536C50.1454 39.4962 45.6845 44.0711 43.5183 49.7653C41.9473 53.8948 38.5042 57.5925 34.0859 57.5925H29.0429C24.6247 57.5925 21.1815 53.8948 19.6105 49.7653C17.4444 44.0711 12.9835 39.4962 7.3484 37.1536C3.42626 35.5231 0 32.1554 0 27.9079V13.0879C0 9.2219 3.13401 6.08789 7 6.08789C8.34424 6.08789 9.20045 7.56514 8.71559 8.81888C7.93671 10.8329 7.51533 12.9849 7.51533 15.2208C7.51533 26.5227 18.2825 35.6847 31.5644 35.6847Z" fill="url(#paint0_linear_280_1418)"/>
<path d="M93.7373 30.6452C93.7373 28.8719 94.0756 27.1919 94.7523 25.6052C95.429 24.0186 96.3623 22.6186 97.5523 21.4052C98.7656 20.1686 100.166 19.2002 101.752 18.5002C103.339 17.8002 105.042 17.4502 106.862 17.4502C108.659 17.4502 110.351 17.8002 111.937 18.5002C113.524 19.2002 114.924 20.1686 116.137 21.4052C117.374 22.6186 118.331 24.0186 119.007 25.6052C119.707 27.1919 120.057 28.8719 120.057 30.6452C120.057 32.4652 119.707 34.1686 119.007 35.7552C118.331 37.3419 117.374 38.7419 116.137 39.9552C114.924 41.1452 113.524 42.0786 111.937 42.7552C110.351 43.4319 108.659 43.7702 106.862 43.7702C105.042 43.7702 103.339 43.4319 101.752 42.7552C100.166 42.0786 98.7656 41.1452 97.5523 39.9552C96.3623 38.7419 95.429 37.3419 94.7523 35.7552C94.0756 34.1686 93.7373 32.4652 93.7373 30.6452ZM98.9873 30.6452C98.9873 31.7886 99.1856 32.8619 99.5823 33.8652C100.002 34.8452 100.574 35.7202 101.297 36.4902C102.044 37.2369 102.896 37.8202 103.852 38.2402C104.832 38.6602 105.894 38.8702 107.037 38.8702C108.134 38.8702 109.149 38.6602 110.082 38.2402C111.039 37.8202 111.867 37.2369 112.567 36.4902C113.267 35.7202 113.816 34.8452 114.212 33.8652C114.609 32.8619 114.807 31.7886 114.807 30.6452C114.807 29.4786 114.597 28.3936 114.177 27.3902C113.781 26.3869 113.221 25.5119 112.497 24.7652C111.797 23.9952 110.969 23.4002 110.012 22.9802C109.056 22.5602 108.017 22.3502 106.897 22.3502C105.777 22.3502 104.739 22.5602 103.782 22.9802C102.826 23.4002 101.986 23.9952 101.262 24.7652C100.539 25.5119 99.979 26.3869 99.5823 27.3902C99.1856 28.3936 98.9873 29.4786 98.9873 30.6452ZM128.722 28.1952L129.177 32.3952L129.072 31.7652C129.515 30.8552 130.122 30.0852 130.892 29.4552C131.662 28.8019 132.42 28.3002 133.167 27.9502C133.937 27.6002 134.52 27.4252 134.917 27.4252L134.672 32.3252C133.529 32.1852 132.549 32.3719 131.732 32.8852C130.915 33.3986 130.285 34.0752 129.842 34.9152C129.399 35.7552 129.177 36.6186 129.177 37.5052V43.4902H124.312V28.1952H128.722ZM143.112 28.1952L143.497 30.9252L143.427 30.6802C143.964 29.7236 144.722 28.9536 145.702 28.3702C146.682 27.7636 147.884 27.4602 149.307 27.4602C150.754 27.4602 151.956 27.8919 152.912 28.7552C153.892 29.5952 154.394 30.6919 154.417 32.0452V43.4902H149.517V33.8652C149.494 33.1886 149.307 32.6519 148.957 32.2552C148.631 31.8352 148.071 31.6252 147.277 31.6252C146.531 31.6252 145.877 31.8702 145.317 32.3602C144.757 32.8502 144.326 33.5152 144.022 34.3552C143.719 35.1952 143.567 36.1636 143.567 37.2602V43.4902H138.667V28.1952H143.112ZM165.889 43.9102C164.465 43.9102 163.17 43.6302 162.004 43.0702C160.86 42.4869 159.95 41.6002 159.274 40.4102C158.597 39.2202 158.259 37.7036 158.259 35.8602C158.259 34.1336 158.609 32.6402 159.309 31.3802C160.009 30.1202 160.93 29.1519 162.074 28.4752C163.217 27.7752 164.43 27.4252 165.714 27.4252C167.23 27.4252 168.374 27.6819 169.144 28.1952C169.937 28.6852 170.59 29.2336 171.104 29.8402L170.894 30.4352L171.349 28.1952H175.899V43.4902H170.999V40.1652L171.384 41.2152C171.337 41.2152 171.197 41.3552 170.964 41.6352C170.73 41.8919 170.38 42.2069 169.914 42.5802C169.47 42.9302 168.91 43.2336 168.234 43.4902C167.58 43.7702 166.799 43.9102 165.889 43.9102ZM167.289 39.9202C167.872 39.9202 168.397 39.8386 168.864 39.6752C169.33 39.4886 169.739 39.2319 170.089 38.9052C170.439 38.5552 170.742 38.1236 170.999 37.6102V33.8652C170.812 33.3519 170.532 32.9202 170.159 32.5702C169.785 32.1969 169.342 31.9169 168.829 31.7302C168.315 31.5202 167.744 31.4152 167.114 31.4152C166.414 31.4152 165.76 31.6019 165.154 31.9752C164.57 32.3252 164.104 32.8152 163.754 33.4452C163.404 34.0752 163.229 34.7986 163.229 35.6152C163.229 36.4319 163.415 37.1669 163.789 37.8202C164.162 38.4736 164.652 38.9869 165.259 39.3602C165.889 39.7336 166.565 39.9202 167.289 39.9202Z" fill="black"/>
<path d="M180.003 17.7302H197.363V22.6302H191.098V43.4902H186.023V22.6302H180.003V17.7302ZM203.781 28.1952L204.236 32.3952L204.131 31.7652C204.574 30.8552 205.181 30.0852 205.951 29.4552C206.721 28.8019 207.479 28.3002 208.226 27.9502C208.996 27.6002 209.579 27.4252 209.976 27.4252L209.731 32.3252C208.587 32.1852 207.607 32.3719 206.791 32.8852C205.974 33.3986 205.344 34.0752 204.901 34.9152C204.457 35.7552 204.236 36.6186 204.236 37.5052V43.4902H199.371V28.1952H203.781ZM220.567 43.9102C218.701 43.9102 217.114 43.5602 215.807 42.8602C214.524 42.1602 213.544 41.1919 212.867 39.9552C212.191 38.7186 211.852 37.2952 211.852 35.6852C211.852 34.1452 212.249 32.7569 213.042 31.5202C213.836 30.2836 214.897 29.3036 216.227 28.5802C217.557 27.8336 219.039 27.4602 220.672 27.4602C222.866 27.4602 224.662 28.1019 226.062 29.3852C227.486 30.6452 228.407 32.4769 228.827 34.8802L216.927 38.6602L215.842 36.0002L224.452 33.0952L223.437 33.5502C223.251 32.9436 222.912 32.4186 222.422 31.9752C221.956 31.5086 221.244 31.2752 220.287 31.2752C219.564 31.2752 218.922 31.4502 218.362 31.8002C217.826 32.1269 217.406 32.6052 217.102 33.2352C216.822 33.8419 216.682 34.5652 216.682 35.4052C216.682 36.3619 216.857 37.1669 217.207 37.8202C217.557 38.4502 218.036 38.9286 218.642 39.2552C219.249 39.5819 219.926 39.7452 220.672 39.7452C221.209 39.7452 221.722 39.6519 222.212 39.4652C222.726 39.2786 223.227 39.0336 223.717 38.7302L225.887 42.3702C225.071 42.8369 224.184 43.2102 223.227 43.4902C222.294 43.7702 221.407 43.9102 220.567 43.9102ZM238.618 43.9102C237.195 43.9102 235.923 43.5836 234.803 42.9302C233.683 42.2536 232.796 41.2852 232.143 40.0252C231.513 38.7652 231.198 37.2719 231.198 35.5452C231.198 33.8186 231.548 32.3486 232.248 31.1352C232.948 29.9219 233.905 29.0002 235.118 28.3702C236.331 27.7402 237.708 27.4252 239.248 27.4252C240.228 27.4252 241.161 27.5769 242.048 27.8802C242.958 28.1836 243.716 28.6502 244.323 29.2802V30.8202V15.8752H249.188V43.4902H244.288V40.5152L244.673 41.5652C243.88 42.2186 242.993 42.7786 242.013 43.2452C241.033 43.6886 239.901 43.9102 238.618 43.9102ZM240.228 39.7802C240.881 39.7802 241.453 39.6986 241.943 39.5352C242.456 39.3486 242.9 39.0919 243.273 38.7652C243.67 38.4152 244.008 37.9836 244.288 37.4702V33.7252C244.101 33.2119 243.81 32.7802 243.413 32.4302C243.04 32.0569 242.573 31.7769 242.013 31.5902C241.476 31.3802 240.881 31.2752 240.228 31.2752C239.505 31.2752 238.828 31.4619 238.198 31.8352C237.591 32.1852 237.101 32.6752 236.728 33.3052C236.355 33.9352 236.168 34.6586 236.168 35.4752C236.168 36.2919 236.355 37.0269 236.728 37.6802C237.101 38.3336 237.591 38.8469 238.198 39.2202C238.828 39.5936 239.505 39.7802 240.228 39.7802ZM261.754 43.9102C259.887 43.9102 258.301 43.5602 256.994 42.8602C255.711 42.1602 254.731 41.1919 254.054 39.9552C253.377 38.7186 253.039 37.2952 253.039 35.6852C253.039 34.1452 253.436 32.7569 254.229 31.5202C255.022 30.2836 256.084 29.3036 257.414 28.5802C258.744 27.8336 260.226 27.4602 261.859 27.4602C264.052 27.4602 265.849 28.1019 267.249 29.3852C268.672 30.6452 269.594 32.4769 270.014 34.8802L258.114 38.6602L257.029 36.0002L265.639 33.0952L264.624 33.5502C264.437 32.9436 264.099 32.4186 263.609 31.9752C263.142 31.5086 262.431 31.2752 261.474 31.2752C260.751 31.2752 260.109 31.4502 259.549 31.8002C259.012 32.1269 258.592 32.6052 258.289 33.2352C258.009 33.8419 257.869 34.5652 257.869 35.4052C257.869 36.3619 258.044 37.1669 258.394 37.8202C258.744 38.4502 259.222 38.9286 259.829 39.2552C260.436 39.5819 261.112 39.7452 261.859 39.7452C262.396 39.7452 262.909 39.6519 263.399 39.4652C263.912 39.2786 264.414 39.0336 264.904 38.7302L267.074 42.3702C266.257 42.8369 265.371 43.2102 264.414 43.4902C263.481 43.7702 262.594 43.9102 261.754 43.9102ZM286.56 42.1252C285.883 42.6619 285.031 43.0936 284.005 43.4202C283.001 43.7469 282.01 43.9102 281.03 43.9102C279.28 43.9102 277.751 43.5952 276.445 42.9652C275.161 42.3119 274.158 41.3902 273.435 40.2002C272.735 38.9869 272.385 37.5286 272.385 35.8252C272.385 34.1219 272.77 32.6752 273.54 31.4852C274.31 30.2719 275.313 29.3502 276.55 28.7202C277.81 28.0902 279.128 27.7752 280.505 27.7752C281.881 27.7752 283.071 27.9619 284.075 28.3352C285.101 28.7086 285.976 29.1986 286.7 29.8052L284.32 32.9552C283.993 32.6986 283.538 32.4419 282.955 32.1852C282.395 31.9052 281.73 31.7652 280.96 31.7652C280.283 31.7652 279.665 31.9402 279.105 32.2902C278.545 32.6402 278.101 33.1186 277.775 33.7252C277.448 34.3319 277.285 35.0319 277.285 35.8252C277.285 36.5719 277.46 37.2602 277.81 37.8902C278.16 38.5202 278.638 39.0219 279.245 39.3952C279.875 39.7452 280.61 39.9202 281.45 39.9202C281.986 39.9202 282.476 39.8502 282.92 39.7102C283.386 39.5469 283.783 39.3252 284.11 39.0452L286.56 42.1252Z" fill="#3F9272"/>
<defs>
<linearGradient id="paint0_linear_280_1418" x1="10.271" y1="9.69322" x2="44.5056" y2="53.592" gradientUnits="userSpaceOnUse">
<stop stop-color="#6BF8C2"/>
<stop offset="0.345" stop-color="#5CD5A6"/>
<stop offset="1" stop-color="#3F9272"/>
</linearGradient>
</defs>
</svg>
