<svg width="33" height="30" viewBox="0 0 33 30" fill="none" xmlns="http://www.w3.org/2000/svg">
<path d="M24.0397 4.57458V4.57458C24.9716 4.57559 25.4375 4.5761 25.8197 4.67917C26.8534 4.95796 27.6601 5.76649 27.9367 6.80079C28.0389 7.18315 28.0384 7.64911 28.0374 8.58104L28.0351 10.7019C28.0345 11.1733 28.0343 11.409 27.8877 11.5553C27.7411 11.7016 27.5054 11.7013 27.034 11.7008L20.0298 11.6932M24.0397 4.57458V4.57458C23.1077 4.57356 22.6418 4.57305 22.2594 4.67528C21.2251 4.95182 20.4166 5.75859 20.1378 6.79227C20.0347 7.17441 20.0342 7.64038 20.0332 8.5723L20.0298 11.6932M24.0397 4.57458L8.02918 4.5571C6.14356 4.55504 5.20075 4.55401 4.61433 5.13916C4.0279 5.72431 4.02687 6.66712 4.02482 8.55273L4.00586 25.9216L8.00925 24.7388L12.01 25.9304L16.0134 24.7476L20.0142 25.9391L20.0298 11.6932" stroke="#308967" stroke-width="2"/>
<path d="M9.36035 9.30713L14.6962 9.31295" stroke="#308967" stroke-width="2" stroke-linecap="round"/>
<path d="M10.6895 14.0571L9.3555 14.0557" stroke="#308967" stroke-width="2" stroke-linecap="round"/>
<path d="M9.34961 18.8044L13.3515 18.8088" stroke="#308967" stroke-width="2" stroke-linecap="round"/>
</svg>
