<svg width="13" height="13" viewBox="0 0 13 13" fill="none" xmlns="http://www.w3.org/2000/svg">
<path fill-rule="evenodd" clip-rule="evenodd" d="M11.0863 4.91338L12.2498 3.74994L12.2498 3.74991C12.3294 3.67028 12.3693 3.63046 12.4013 3.5952C13.0947 2.83238 13.0947 1.6675 12.4013 0.904684C12.3693 0.869429 12.3294 0.829611 12.2498 0.749986L12.2498 0.749942C12.1701 0.670288 12.1303 0.630461 12.095 0.59841C11.3322 -0.0949776 10.1673 -0.0949776 9.40451 0.59841C9.36925 0.630461 9.32943 0.670288 9.24977 0.749943L8.06876 1.93096C8.78205 3.17611 9.8241 4.21005 11.0863 4.91338ZM6.61405 3.38566L1.85615 8.14356C1.43109 8.56862 1.21856 8.78115 1.07883 9.04225C0.939091 9.30335 0.880146 9.59807 0.762256 10.1875L0.39686 12.0145C0.330338 12.3471 0.297077 12.5134 0.391685 12.608C0.486292 12.7026 0.652596 12.6694 0.985204 12.6029H0.985208L2.81219 12.2375L2.8122 12.2375C3.40164 12.1196 3.69637 12.0606 3.95746 11.9209C4.21856 11.7812 4.43109 11.5686 4.85614 11.1436L4.85614 11.1436L4.85615 11.1436L9.62784 6.37187C8.41687 5.60363 7.38944 4.58312 6.61405 3.38566Z" fill="white"/>
</svg>
