<svg width="31" height="26" viewBox="0 0 31 26" fill="none" xmlns="http://www.w3.org/2000/svg">
<path d="M9.67962 4.89932L11.8718 2.70711C12.2624 2.31658 12.8955 2.31658 13.2861 2.70711L17.135 6.55605C17.5255 6.94658 17.5255 7.57974 17.135 7.97026L14.5533 10.552C14.16 10.9453 14.0625 11.5461 14.3112 12.0435C15.7491 14.9192 18.0808 17.2509 20.9565 18.6888C21.4539 18.9375 22.0547 18.84 22.448 18.4467L25.0297 15.865C25.4203 15.4745 26.0534 15.4745 26.4439 15.865L30.2929 19.7139C30.6834 20.1045 30.6834 20.7376 30.2929 21.1282L28.1007 23.3204C25.9893 25.4317 22.6468 25.6693 20.258 23.8777L16.5233 21.0767C14.7798 19.769 13.231 18.2202 11.9233 16.4767L9.12226 12.742C7.33072 10.3532 7.56827 7.01068 9.67962 4.89932Z" fill="#3F9272"/>
</svg>
