<svg width="21" height="20" viewBox="0 0 21 20" fill="none" xmlns="http://www.w3.org/2000/svg">
<path d="M13.6946 1.76547L2.7251 12.9036C2.71225 12.9167 2.69941 12.9297 2.68661 12.9426C2.51303 13.1183 2.34608 13.2873 2.2344 13.5005C2.12272 13.7137 2.07884 13.9472 2.03321 14.1899C2.02984 14.2078 2.02646 14.2257 2.02305 14.2438L1.31859 17.9596C1.31673 17.9695 1.31485 17.9794 1.31294 17.9894C1.28298 18.1469 1.24919 18.3246 1.24321 18.4743C1.23658 18.6404 1.25519 18.9414 1.51277 19.1688C1.77036 19.3962 2.07135 19.3773 2.23535 19.3502C2.38314 19.3257 2.55529 19.2701 2.70792 19.2208C2.7176 19.2177 2.7272 19.2146 2.73671 19.2115L7.45696 17.6905C7.47104 17.686 7.48508 17.6815 7.49909 17.677C7.68968 17.6159 7.87278 17.5571 8.03936 17.4544C8.20594 17.3518 8.3407 17.2146 8.48098 17.0718C8.49128 17.0613 8.50162 17.0508 8.512 17.0402L18.9709 6.42053L19.0009 6.39008C19.3752 6.01011 19.7006 5.67975 19.9196 5.38262C20.1542 5.06448 20.3371 4.6929 20.2864 4.2407C20.2357 3.7885 19.9749 3.46671 19.6757 3.20845C19.3962 2.96725 19.0057 2.71721 18.5566 2.42963L18.5206 2.40658L16.9492 1.40032L16.9215 1.38259C16.6182 1.18832 16.3465 1.01429 16.1056 0.898482C15.8425 0.772039 15.5551 0.683443 15.2251 0.720464C14.8952 0.757484 14.6345 0.907571 14.4061 1.08916C14.1968 1.25547 13.9704 1.48539 13.7177 1.74204L13.6946 1.76547Z" stroke="#99E5C7" stroke-width="1.2"/>
</svg>
