<svg width="18" height="19" viewBox="0 0 18 19" fill="none" xmlns="http://www.w3.org/2000/svg">
<path d="M1.29248 6.89024C1.29248 4.34926 1.29248 3.07877 2.1283 2.28938C2.96411 1.5 4.30934 1.5 6.9998 1.5H10.8047C13.4951 1.5 14.8404 1.5 15.6762 2.28938C16.512 3.07877 16.512 4.34926 16.512 6.89024V13.024C16.512 15.4346 16.512 16.6399 15.7089 17.0085C14.9058 17.3772 13.9023 16.6325 11.8953 15.1432L11.253 14.6666C10.1245 13.8292 9.56022 13.4104 8.90224 13.4104C8.24425 13.4104 7.68 13.8292 6.5515 14.6666L5.90919 15.1432C3.90219 16.6325 2.8987 17.3772 2.09559 17.0085C1.29248 16.6399 1.29248 15.4346 1.29248 13.024V6.89024Z" stroke="#3F9272" stroke-width="2"/>
</svg>
