<svg width="17" height="17" viewBox="0 0 17 17" fill="none" xmlns="http://www.w3.org/2000/svg">
<path d="M3.58646 7.73526L6.45788 8.6924L6.45788 8.6924C6.92341 8.84758 7.15617 8.92517 7.3231 9.09209C7.49002 9.25902 7.56761 9.49178 7.72279 9.95731L8.67992 12.8287L8.67993 12.8287C9.46433 15.1819 9.85653 16.3585 10.5773 16.3585C11.298 16.3585 11.6903 15.1819 12.4747 12.8287L12.4747 12.8287L15.6538 3.29117C16.2058 1.63538 16.4817 0.807482 16.0447 0.370466C15.6077 -0.0665502 14.7798 0.209415 13.124 0.761345L3.58646 3.94053C1.23325 4.72494 0.0566406 5.11714 0.0566406 5.8379C0.0566406 6.55866 1.23325 6.95086 3.58646 7.73526Z" fill="#3F9272"/>
</svg>
