<svg width="26" height="28" viewBox="0 0 26 28" fill="none" xmlns="http://www.w3.org/2000/svg">
<path fill-rule="evenodd" clip-rule="evenodd" d="M8.74858 3.16897L13.5815 2.35109C16.8307 1.80124 18.4552 1.52631 19.519 2.42515C20.5827 3.32399 20.5827 4.97165 20.5827 8.26697V12.9996H13.9046L17.0521 8.7626L15.4466 7.56995L11.1133 13.4033L10.6703 13.9996L11.1133 14.5959L15.4466 20.4293L17.0521 19.2366L13.9046 14.9996H20.5827V19.7323C20.5827 23.0276 20.5827 24.6752 19.519 25.5741C18.4552 26.4729 16.8307 26.198 13.5816 25.6481H13.5815L8.74858 24.8303C7.15667 24.5609 6.36071 24.4262 5.88837 23.8671C5.41602 23.3081 5.41602 22.5009 5.41602 20.8863V7.1129C5.41602 5.49835 5.41602 4.69108 5.88836 4.13207C6.36071 3.57307 7.15667 3.43837 8.74858 3.16897Z" fill="#28DF99"/>
</svg>
