<svg width="31" height="31" viewBox="0 0 31 31" fill="none" xmlns="http://www.w3.org/2000/svg">
<path d="M2.58325 15.4998L1.80238 14.8751L1.30263 15.4998L1.80238 16.1245L2.58325 15.4998ZM14.2083 16.4998C14.7605 16.4998 15.2083 16.0521 15.2083 15.4998C15.2083 14.9476 14.7605 14.4998 14.2083 14.4998V16.4998ZM6.96905 8.41681L1.80238 14.8751L3.36412 16.1245L8.53079 9.6662L6.96905 8.41681ZM1.80238 16.1245L6.96905 22.5829L8.53079 21.3335L3.36412 14.8751L1.80238 16.1245ZM2.58325 16.4998H14.2083V14.4998H2.58325V16.4998Z" fill="white"/>
<path d="M12.9167 10.5039V8.55534C12.9167 6.937 12.9167 6.12783 13.3907 5.56833C13.8647 5.00884 14.6628 4.87582 16.2592 4.60976L21.4304 3.74789C24.6734 3.20738 26.295 2.93712 27.3559 3.83582C28.4167 4.73451 28.4167 6.37843 28.4167 9.66626V21.3341C28.4167 24.6219 28.4167 26.2658 27.3559 27.1645C26.295 28.0632 24.6734 27.7929 21.4304 27.2524L16.2592 26.3906C14.6628 26.1245 13.8647 25.9915 13.3907 25.432C12.9167 24.8725 12.9167 24.0633 12.9167 22.445V20.752" stroke="white" stroke-width="2"/>
</svg>
