<svg width="18" height="17" viewBox="0 0 18 17" fill="none" xmlns="http://www.w3.org/2000/svg">
<path d="M3 6.375C3 4.37153 3 3.3698 3.65901 2.7474C4.31802 2.125 5.37868 2.125 7.5 2.125H10.5C12.6213 2.125 13.682 2.125 14.341 2.7474C15 3.3698 15 4.37153 15 6.375V11.2112C15 13.1119 15 14.0622 14.3668 14.3529C13.7336 14.6436 12.9423 14.0564 11.3599 12.8821L10.8535 12.5063C9.96368 11.8461 9.51879 11.5159 9 11.5159C8.48121 11.5159 8.03632 11.8461 7.14653 12.5063L6.6401 12.8822C5.05766 14.0564 4.26644 14.6436 3.63322 14.3529C3 14.0622 3 13.1119 3 11.2112V6.375Z" stroke="#3F9272" stroke-width="2"/>
</svg>
