<svg width="13" height="14" viewBox="0 0 13 14" fill="none" xmlns="http://www.w3.org/2000/svg">
<path d="M2.16602 5.25C2.16602 3.60008 2.16602 2.77513 2.64197 2.26256C3.11792 1.75 3.88395 1.75 5.41602 1.75H7.58268C9.11475 1.75 9.88078 1.75 10.3567 2.26256C10.8327 2.77513 10.8327 3.60008 10.8327 5.25V9.23277C10.8327 10.798 10.8327 11.5806 10.3754 11.82C9.91803 12.0594 9.34659 11.5759 8.20372 10.6088L7.83796 10.2993C7.19534 9.75558 6.87403 9.48371 6.49935 9.48371C6.12466 9.48371 5.80335 9.75558 5.16074 10.2993L4.79497 10.6088C3.6521 11.5759 3.08067 12.0594 2.62334 11.82C2.16602 11.5806 2.16602 10.798 2.16602 9.23277V5.25Z" fill="#3F9272" stroke="#3F9272" stroke-width="2"/>
</svg>
