<svg width="26" height="25" viewBox="0 0 26 25" fill="none" xmlns="http://www.w3.org/2000/svg">
<path d="M10.834 15.625L10.834 12.5" stroke="#5CD5A6" stroke-width="2" stroke-linecap="round"/>
<path d="M15.166 15.625L15.166 12.5" stroke="#5CD5A6" stroke-width="2" stroke-linecap="round"/>
<path d="M3.25 7.29175H22.75V7.29175C21.5827 7.29175 20.999 7.29175 20.5572 7.52791C20.2084 7.71437 19.9226 8.0001 19.7362 8.34895C19.5 8.79077 19.5 9.37443 19.5 10.5417V16.8334C19.5 18.719 19.5 19.6618 18.9142 20.2476C18.3284 20.8334 17.3856 20.8334 15.5 20.8334H10.5C8.61438 20.8334 7.67157 20.8334 7.08579 20.2476C6.5 19.6618 6.5 18.719 6.5 16.8334V10.5418C6.5 9.37443 6.5 8.79077 6.26384 8.34895C6.07738 8.0001 5.79165 7.71437 5.44279 7.52791C5.00097 7.29175 4.41732 7.29175 3.25 7.29175V7.29175Z" stroke="#5CD5A6" stroke-width="2" stroke-linecap="round"/>
<path d="M10.9065 3.51103C11.03 3.40029 11.302 3.30243 11.6804 3.23263C12.0588 3.16283 12.5224 3.125 12.9993 3.125C13.4763 3.125 13.9399 3.16283 14.3183 3.23263C14.6967 3.30242 14.9687 3.40029 15.0922 3.51103" stroke="#5CD5A6" stroke-width="2" stroke-linecap="round"/>
</svg>
