<svg width="43" height="43" viewBox="0 0 43 43" fill="none" xmlns="http://www.w3.org/2000/svg">
<path d="M7.16699 7.1665H10.9804C11.7304 7.1665 12.1054 7.1665 12.3766 7.3783C12.6479 7.59009 12.7388 7.95387 12.9207 8.68143L13.5762 11.3033C13.94 12.7584 14.1219 13.486 14.6644 13.9096C15.2069 14.3332 15.9569 14.3332 17.4568 14.3332H17.917" stroke="white" stroke-width="2" stroke-linecap="round"/>
<path d="M32.25 30.4585H13.5249C12.2586 30.4585 11.6255 30.4585 11.3262 30.0432C11.0269 29.6279 11.2275 29.0261 11.6287 27.8224V27.8224C12.0696 26.4998 12.29 25.8385 12.8138 25.461C13.3375 25.0835 14.0333 25.0835 15.4247 25.0835H25.0833" stroke="white" stroke-width="2" stroke-linecap="round" stroke-linejoin="round"/>
<path d="M29.2226 25.0835H16.0279C15.0502 25.0835 14.2159 24.3767 14.0551 23.4123L12.8331 16.0801C12.6807 15.1658 13.3858 14.3335 14.3127 14.3335H34.2156C34.959 14.3335 35.4425 15.1158 35.1101 15.7807L31.0114 23.9779C30.6727 24.6555 29.9801 25.0835 29.2226 25.0835Z" stroke="white" stroke-width="2" stroke-linecap="round"/>
<circle cx="30.4587" cy="35.8332" r="1.79167" fill="white"/>
<circle cx="16.1247" cy="35.8332" r="1.79167" fill="white"/>
</svg>
